<svg width="280" height="150" viewBox="0 0 280 150" fill="none" xmlns="http://www.w3.org/2000/svg">
<path d="M120.198 130.315C120.198 141.202 111.4 150 100.513 150C89.6261 150 80.8284 141.202 80.8284 130.315V116.074C80.8284 126.961 72.0308 135.759 61.1987 135.759C50.3116 135.759 41.5689 126.961 41.5689 116.074H41.5139V108.596C41.129 119.703 32.0015 128.556 20.7845 128.556C9.34751 128.611 0 119.318 0 107.826C0 107.606 0 107.441 0.0549853 107.221V42.8336C0.0549853 42.6136 0 42.4487 0 42.2287C0 30.7918 9.34751 21.4443 20.7845 21.4443C32.0015 21.4443 41.129 30.2969 41.5139 41.4589V19.6848H41.5689C41.5139 8.79765 50.3116 0 61.1987 0C72.0308 0 80.8284 8.79765 80.8284 19.6848V33.926C80.8284 23.0389 89.6261 14.2412 100.513 14.2412C111.345 14.2412 120.198 23.0389 120.198 33.926V41.129C120.253 30.2969 129.051 21.5543 139.828 21.5543C150.66 21.5543 159.457 30.3519 159.512 41.129V33.9809C159.512 23.0938 168.31 14.2962 179.197 14.2962C190.084 14.2962 198.827 23.0938 198.827 33.9809V41.239H198.937C198.937 30.3519 207.735 21.5543 218.567 21.5543C229.124 21.5543 237.702 29.857 238.196 40.2493V28.3174V27.8776C238.196 16.3856 247.489 7.09311 258.926 7.09311C270.363 7.09311 279.71 16.3856 279.71 27.8226V107.771C279.71 119.263 270.418 128.501 258.981 128.501C247.544 128.501 238.196 119.208 238.196 107.771V116.019C238.196 126.851 229.399 135.704 218.512 135.704C207.625 135.704 198.882 126.906 198.882 116.019H198.827V108.926C198.827 119.758 190.029 128.556 179.197 128.556C168.31 128.556 159.512 119.758 159.512 108.926V116.074C159.512 126.906 150.715 135.704 139.828 135.704C128.996 135.704 120.198 126.906 120.198 116.074V130.315Z" fill="#FFD400"/>
<path d="M268.164 73.6805C265.084 72.0309 261.565 71.0962 257.826 71.0962C254.087 71.0962 250.568 72.0309 247.489 73.6805C243.475 75.8799 240.176 79.289 238.142 83.4129C236.107 79.234 232.863 75.8249 228.794 73.6805C225.715 72.0309 222.196 71.0962 218.457 71.0962C214.718 71.0962 211.199 72.0309 208.12 73.6805C204.051 75.8799 200.751 79.289 198.772 83.5229C196.738 79.344 193.438 75.8799 189.37 73.6805C186.29 72.0309 182.771 71.0962 179.087 71.0962C175.348 71.0962 171.829 72.0309 168.75 73.6805C164.736 75.8249 161.437 79.234 159.457 83.3579C157.423 79.234 154.179 75.8799 150.165 73.6805C147.086 72.0309 143.567 71.0962 139.828 71.0962C136.089 71.0962 132.57 72.0309 129.49 73.6805C125.422 75.8799 122.122 79.289 120.143 83.4129C118.109 79.234 114.809 75.8249 110.795 73.6805C107.716 72.0309 104.197 71.0962 100.513 71.0962C96.7742 71.0962 93.2551 72.0309 90.176 73.6805C86.107 75.8799 82.8079 79.289 80.8284 83.4129C78.849 79.234 75.5499 75.8249 71.4809 73.6805C68.4018 72.0309 64.8827 71.0962 61.1437 71.0962C57.4047 71.0962 53.8856 72.0309 50.8065 73.6805C46.7375 75.8799 43.4384 79.289 41.4589 83.4129C39.4795 79.234 36.1804 75.8249 32.1114 73.6805C29.0323 72.0309 25.5132 71.0962 21.7742 71.0962C18.0352 71.0962 14.5161 72.0309 11.4369 73.6805C4.67375 77.3645 0 84.6226 0 92.9254C0 104.967 9.78739 114.755 21.8292 114.755C30.5169 114.755 37.9399 109.696 41.5139 102.438C45.088 109.696 52.566 114.755 61.1987 114.755C69.8314 114.755 77.3094 109.696 80.8284 102.438C84.3475 109.696 91.8255 114.755 100.513 114.755C109.146 114.755 116.624 109.696 120.198 102.438C123.717 109.696 131.195 114.755 139.883 114.755C148.515 114.755 155.938 109.751 159.512 102.493C163.087 109.751 170.51 114.755 179.142 114.755C187.83 114.755 195.308 109.696 198.827 102.328C202.346 109.641 209.824 114.755 218.512 114.755C227.144 114.755 234.622 109.696 238.196 102.438C241.716 109.696 249.194 114.755 257.881 114.755C269.978 114.755 279.71 104.967 279.71 92.9254C279.71 84.6226 275.037 77.3645 268.164 73.6805Z" fill="#ED1C24"/>
<path d="M190.249 92.7604V74.1204C188.875 73.2956 187.39 72.6358 185.795 72.0859V84.2927L185.466 84.0178C185.136 83.6878 184.696 83.4129 184.256 83.083C183.761 82.8081 183.211 82.5331 182.661 82.3132C182.111 82.0933 181.507 81.9283 180.902 81.7634C180.297 81.5984 179.692 81.5434 179.142 81.5434C177.603 81.5434 176.118 81.8183 174.798 82.4232C173.424 83.028 172.269 83.8528 171.279 84.7875C170.29 85.7773 169.465 86.987 168.915 88.3066C168.31 89.6263 168.035 91.1109 168.035 92.6505C168.035 94.19 168.31 95.6197 168.915 96.9943C169.465 98.3689 170.29 99.5236 171.279 100.513C172.269 101.503 173.479 102.328 174.798 102.878C176.118 103.483 177.603 103.757 179.142 103.757C180.682 103.757 182.166 103.483 183.486 102.878C184.861 102.328 186.015 101.503 187.005 100.513C187.995 99.5236 188.82 98.3139 189.37 96.9943C189.974 95.8396 190.249 94.355 190.249 92.7604ZM185.795 92.7604C185.795 93.6952 185.631 94.5199 185.246 95.3447C184.916 96.1695 184.421 96.8293 183.816 97.4892C183.211 98.094 182.496 98.5339 181.672 98.9188C180.847 99.3037 180.022 99.4686 179.087 99.4686C178.153 99.4686 177.273 99.3037 176.448 98.9188C175.678 98.5339 174.908 98.094 174.304 97.4892C173.699 96.8843 173.259 96.1695 172.874 95.3447C172.544 94.5199 172.324 93.6402 172.324 92.7604C172.324 91.8257 172.544 90.9459 172.874 90.1211C173.259 89.2963 173.699 88.6365 174.304 88.0317C174.908 87.4268 175.623 86.932 176.448 86.6021C178.098 85.8873 180.022 85.8873 181.617 86.6021C182.441 86.932 183.156 87.4268 183.761 88.0317C184.366 88.6365 184.861 89.3513 185.191 90.1211C185.631 91.0009 185.795 91.8807 185.795 92.7604ZM29.6371 85.0625C28.6474 84.0727 27.4927 83.248 26.1181 82.6431C24.7984 82.0383 23.3138 81.7634 21.7742 81.7634C20.2346 81.7634 18.75 82.0383 17.4304 82.6431C16.0557 83.248 14.901 84.0727 13.9113 85.0625C12.9216 86.1072 12.0968 87.2619 11.5469 88.5815C10.9421 89.9012 10.6672 91.3858 10.6672 92.9254C10.6672 94.465 10.9421 95.9496 11.5469 97.2692C12.1518 98.6438 12.9216 99.8535 13.9113 100.788C14.901 101.778 16.0557 102.603 17.4304 103.153C18.805 103.757 20.2346 104.032 21.7742 104.032C23.3138 104.032 24.7984 103.757 26.1181 103.153C27.4927 102.548 28.6474 101.778 29.6371 100.788C30.6269 99.7985 31.4516 98.6438 32.0015 97.2692C32.6063 95.9496 32.8813 94.465 32.8813 92.9254C32.8813 91.3858 32.6063 89.9012 32.0015 88.5815C31.4516 87.2619 30.6269 86.1072 29.6371 85.0625ZM27.9326 95.5647C27.5477 96.3895 27.0528 97.1043 26.503 97.7091C25.8981 98.3139 25.1833 98.8088 24.3585 99.1387C23.5337 99.4686 22.654 99.6886 21.7742 99.6886C20.8395 99.6886 20.0147 99.4686 19.1899 99.1387C18.3651 98.7538 17.6503 98.3139 17.1005 97.7091C16.4956 97.1043 16.0557 96.3895 15.6708 95.5647C15.3409 94.7399 15.121 93.8601 15.121 92.9804C15.121 92.0456 15.3409 91.1658 15.6708 90.3411C16.0557 89.5163 16.4956 88.8015 17.1005 88.1966C17.7053 87.5918 18.4201 87.1519 19.1899 86.767C20.0147 86.4371 20.8944 86.2172 21.7742 86.2172C22.709 86.2172 23.5337 86.4371 24.3585 86.767C25.1283 87.1519 25.8431 87.5918 26.503 88.1966C27.1078 88.8015 27.6027 89.5163 27.9326 90.3411C28.6474 91.9356 28.6474 93.9151 27.9326 95.5647ZM69.0066 85.0625C68.0169 84.0727 66.8072 83.248 65.4876 82.6431C64.1679 82.0383 62.6833 81.7634 61.1437 81.7634C59.5491 81.7634 58.1195 82.0383 56.7999 82.6431C55.4252 83.248 54.2705 84.0727 53.2808 85.0625C52.2361 86.1072 51.4663 87.2619 50.9164 88.5815C50.3116 89.9012 50.0367 91.3858 50.0367 92.9254C50.0367 94.465 50.3116 95.9496 50.9164 97.2692C51.5213 98.6438 52.2911 99.8535 53.2808 100.788C54.2705 101.778 55.4252 102.603 56.7999 103.153C58.1195 103.757 59.6041 104.032 61.1437 104.032C62.6833 104.032 64.1679 103.757 65.4876 103.153C66.8072 102.548 68.0169 101.778 69.0066 100.788C69.9964 99.7985 70.8211 98.6438 71.371 97.2692C71.9758 95.9496 72.2508 94.465 72.2508 92.9254C72.2508 91.3858 71.9758 89.9012 71.371 88.5815C70.7662 87.2619 69.9964 86.1072 69.0066 85.0625ZM67.2471 95.5647C66.8622 96.3895 66.4223 97.1043 65.8175 97.7091C65.2126 98.3139 64.4978 98.8088 63.728 99.1387C62.9032 99.4686 62.0235 99.6886 61.1437 99.6886C60.209 99.6886 59.3292 99.4686 58.5044 99.1387C57.7346 98.7538 57.0198 98.3139 56.415 97.7091C55.8101 97.1043 55.3703 96.3895 54.9854 95.5647C54.6554 94.7399 54.4355 93.8601 54.4355 92.9804C54.4355 92.0456 54.6005 91.1658 54.9854 90.3411C55.3703 89.5163 55.8651 88.8015 56.415 88.1966C57.0198 87.5918 57.7346 87.1519 58.5044 86.767C59.3292 86.4371 60.209 86.2172 61.1437 86.2172C62.0235 86.2172 62.9032 86.4371 63.728 86.767C64.4978 87.1519 65.2126 87.5918 65.8175 88.1966C66.4223 88.8015 66.9172 89.5163 67.2471 90.3411C67.9619 91.9356 67.9619 93.9151 67.2471 95.5647ZM226.32 85.0625C225.33 84.0727 224.12 83.248 222.801 82.6431C221.481 82.0383 219.996 81.7634 218.457 81.7634C216.917 81.7634 215.433 82.0383 214.113 82.6431C212.738 83.248 211.584 84.0727 210.594 85.0625C209.604 86.1072 208.834 87.2619 208.23 88.5815C207.625 89.9012 207.35 91.3858 207.35 92.9254C207.35 94.465 207.625 95.9496 208.23 97.2692C208.834 98.6438 209.604 99.8535 210.594 100.788C211.584 101.778 212.738 102.603 214.113 103.153C215.488 103.757 216.917 104.032 218.457 104.032C219.996 104.032 221.481 103.757 222.801 103.153C224.12 102.548 225.33 101.778 226.32 100.788C227.309 99.7985 228.079 98.6438 228.684 97.2692C229.289 95.9496 229.564 94.465 229.564 92.9254C229.564 91.3858 229.289 89.9012 228.684 88.5815C228.079 87.2619 227.309 86.1072 226.32 85.0625ZM224.615 95.5647C224.23 96.3895 223.79 97.1043 223.186 97.7091C222.581 98.3139 221.866 98.8088 221.041 99.1387C220.216 99.4686 219.392 99.6886 218.457 99.6886C217.522 99.6886 216.697 99.4686 215.872 99.1387C215.048 98.7538 214.333 98.3139 213.728 97.7091C213.123 97.1043 212.628 96.3895 212.298 95.5647C211.969 94.7399 211.804 93.8601 211.804 92.9804C211.804 92.0456 211.969 91.1658 212.298 90.3411C212.628 89.5163 213.123 88.8015 213.728 88.1966C214.333 87.5918 215.048 87.1519 215.872 86.767C216.697 86.4371 217.522 86.2172 218.457 86.2172C219.392 86.2172 220.216 86.4371 221.041 86.767C221.866 87.1519 222.581 87.5918 223.186 88.1966C223.79 88.8015 224.23 89.5163 224.615 90.3411C225.275 91.9356 225.275 93.9151 224.615 95.5647ZM265.689 85.0625C264.644 84.0727 263.49 83.248 262.17 82.6431C260.795 82.0383 259.366 81.7634 257.826 81.7634C256.287 81.7634 254.802 82.0383 253.482 82.6431C252.163 83.248 250.953 84.0727 249.963 85.0625C248.974 86.1072 248.204 87.2619 247.599 88.5815C246.994 89.9012 246.719 91.3858 246.719 92.9254C246.719 94.465 246.994 95.9496 247.599 97.2692C248.204 98.6438 248.974 99.8535 249.963 100.788C250.953 101.778 252.108 102.603 253.482 103.153C254.857 103.757 256.287 104.032 257.826 104.032C259.366 104.032 260.85 103.757 262.17 103.153C263.49 102.548 264.644 101.778 265.689 100.788C266.679 99.7985 267.449 98.6438 268.054 97.2692C268.658 95.9496 268.933 94.465 268.933 92.9254C268.933 91.3858 268.658 89.9012 268.054 88.5815C267.449 87.2619 266.624 86.1072 265.689 85.0625ZM263.93 95.5647C263.545 96.3895 263.105 97.1043 262.5 97.7091C261.895 98.3139 261.18 98.8088 260.356 99.1387C259.531 99.4686 258.651 99.6886 257.771 99.6886C256.837 99.6886 255.957 99.4686 255.187 99.1387C254.362 98.7538 253.647 98.3139 253.098 97.7091C252.493 97.1043 251.998 96.3895 251.668 95.5647C251.338 94.7399 251.173 93.8601 251.173 92.9804C251.173 92.0456 251.338 91.1658 251.668 90.3411C252.053 89.5163 252.493 88.8015 253.098 88.1966C253.702 87.5918 254.417 87.1519 255.187 86.767C256.012 86.4371 256.837 86.2172 257.771 86.2172C258.706 86.2172 259.531 86.4371 260.356 86.767C261.18 87.1519 261.895 87.5918 262.5 88.1966C263.105 88.8015 263.545 89.5163 263.93 90.3411C264.644 91.9356 264.644 93.9151 263.93 95.5647ZM105.187 88.1417C105.792 88.7465 106.287 89.4613 106.617 90.2861C106.837 90.726 106.947 91.2208 107.056 91.7157H111.565C111.455 90.561 111.18 89.5163 110.74 88.5266C110.136 87.1519 109.311 85.9972 108.376 85.0075C107.386 84.0178 106.177 83.193 104.857 82.6431C103.537 82.0383 102.053 81.7634 100.513 81.7634C98.9736 81.7634 97.489 82.0383 96.1694 82.6431C94.8497 83.248 93.6401 84.0178 92.6503 85.0075C91.6606 85.9972 90.8908 87.2069 90.2859 88.5266C89.7361 89.9012 89.4062 91.3308 89.4062 92.9254V103.483H93.86V92.5955C93.915 91.7707 94.0799 91.0009 94.4098 90.2861C94.7398 89.4613 95.2346 88.7465 95.8395 88.1417C96.4443 87.5368 97.1591 87.0969 97.9839 86.712C99.6335 85.9972 101.558 85.9972 103.208 86.712C103.867 87.0419 104.582 87.5368 105.187 88.1417ZM150.055 88.8565C149.56 87.4818 148.79 86.2722 147.856 85.2274C146.921 84.1827 145.711 83.3579 144.392 82.6981C143.072 82.0933 141.477 81.7634 139.773 81.7634C138.233 81.7634 136.804 82.0383 135.429 82.6431C134.109 83.248 132.9 84.0727 131.91 85.0075C130.92 85.9972 130.095 87.2069 129.49 88.5266C128.941 89.8462 128.666 91.3308 128.666 92.8704C128.666 94.41 128.941 95.8946 129.49 97.2142C130.095 98.5889 130.92 99.7436 131.91 100.733C132.9 101.723 134.109 102.493 135.429 103.098C136.804 103.703 138.233 103.977 139.773 103.977C140.927 103.977 142.082 103.812 143.237 103.538C144.337 103.208 145.436 102.713 146.371 102.053C147.361 101.393 148.24 100.458 148.955 99.4136C149.67 98.3689 150.275 97.1592 150.715 95.6746H145.876C145.381 96.8293 144.611 97.7641 143.622 98.4789C142.577 99.1937 141.312 99.5786 139.773 99.5786C138.893 99.5786 138.068 99.4136 137.243 99.0837C136.474 98.7538 135.759 98.3139 135.154 97.7091C134.549 97.1592 134.054 96.4444 133.669 95.6746C133.284 94.9048 133.065 94.0801 133.065 93.2003V92.9804H150.935C150.88 91.5507 150.605 90.1761 150.055 88.8565ZM133.889 89.1864L134.054 88.9114C135.154 87.1519 137.078 86.2172 139.828 86.1072C142.522 86.1072 144.392 87.0969 145.491 88.9114L145.656 89.1864H133.889Z" fill="white"/>
<path d="M263.545 59.0544C262.83 59.0544 262.225 58.9994 261.84 58.8344C261.455 58.7245 261.18 58.5595 260.96 58.2846C260.74 58.0097 260.63 57.6797 260.575 57.2399C260.521 56.745 260.466 56.1951 260.466 55.6453V48.7171H263.655V43.9884H260.466V33.3762H255.517V44.0434H252.933V48.7721H255.517V56.635C255.517 57.7897 255.682 58.7795 255.902 59.6592C256.177 60.594 256.562 61.3088 257.166 61.9686C257.771 62.5734 258.486 63.0683 259.476 63.3982C260.411 63.7281 261.51 63.8931 262.83 63.8931H263.985V59.0544H263.545ZM147.801 44.5383C146.756 43.4935 145.546 42.6688 144.172 42.0639C142.797 41.4591 141.312 41.1841 139.718 41.1841C138.123 41.1841 136.639 41.4591 135.264 42.0639C133.889 42.6688 132.68 43.4935 131.635 44.5383C130.59 45.528 129.765 46.7927 129.161 48.1673C128.556 49.5419 128.226 51.0265 128.226 52.6211C128.226 54.2157 128.556 55.7003 129.161 57.0199C130.352 59.7516 132.532 61.9318 135.264 63.1233C136.639 63.7281 138.123 64.0031 139.718 64.0031C141.312 64.0031 142.797 63.7281 144.172 63.1233C145.546 62.5185 146.811 61.6937 147.801 60.649C148.845 59.6042 149.67 58.3946 150.275 57.0199C150.88 55.6453 151.155 54.1607 151.155 52.6211C151.155 51.0265 150.825 49.5419 150.275 48.1673C149.615 46.7927 148.79 45.528 147.801 44.5383ZM139.718 58.7795C138.838 58.7795 138.013 58.6145 137.298 58.2846C136.584 57.9547 135.869 57.5148 135.319 56.9649C134.769 56.4151 134.329 55.7553 133.999 54.9855C133.669 54.2157 133.504 53.3909 133.504 52.5661C133.504 51.7413 133.669 50.9166 133.999 50.1468C134.329 49.377 134.769 48.7171 135.319 48.1673C135.924 47.6174 136.529 47.1775 137.298 46.8476C138.013 46.5177 138.838 46.3528 139.718 46.3528C140.597 46.3528 141.367 46.5177 142.137 46.8476C142.907 47.1775 143.567 47.6174 144.117 48.1673C144.721 48.7171 145.161 49.377 145.436 50.1468C145.766 50.9166 145.931 51.7413 145.931 52.5661C145.931 53.4459 145.766 54.2157 145.436 54.9855C145.106 55.7553 144.666 56.4151 144.117 56.9649C143.567 57.5698 142.907 57.9547 142.137 58.2846C141.367 58.6695 140.543 58.7795 139.718 58.7795ZM106.782 43.7135C106.452 43.3836 106.012 43.1086 105.517 42.8337C105.022 42.5588 104.472 42.2839 103.922 42.0639C103.317 41.844 102.713 41.624 102.163 41.5141C101.558 41.3491 100.953 41.2941 100.293 41.2941C98.6987 41.2941 97.2141 41.569 95.8394 42.1739C94.4648 42.7787 93.2551 43.6035 92.2654 44.5932C91.2756 45.583 90.4509 46.7927 89.846 48.1673C89.2412 49.5419 88.9663 51.0265 88.9663 52.5661C88.9663 54.1607 89.2412 55.6453 89.846 57.0199C90.4509 58.3946 91.2756 59.6042 92.2654 60.594C93.2551 61.5837 94.4648 62.4085 95.8394 63.0133C97.2141 63.6182 98.6987 63.8931 100.293 63.8931C101.888 63.8931 103.372 63.6182 104.747 63.0133C106.122 62.4085 107.331 61.6387 108.321 60.649C109.366 59.6042 110.191 58.3946 110.74 57.0199C111.345 55.6453 111.62 54.1607 111.62 52.5111V31.6167H106.727V43.7135H106.782ZM97.8189 58.6145C96.9941 58.2846 96.3343 57.7897 95.7844 57.2399C95.1796 56.635 94.7397 55.9752 94.3548 55.1504C94.0249 54.3806 93.86 53.5009 93.86 52.6211C93.86 51.7413 94.0249 50.9166 94.3548 50.1468C94.7397 49.322 95.1796 48.6622 95.7844 48.0573C96.3893 47.4525 97.0491 47.0126 97.8739 46.6827C98.6437 46.3528 99.5234 46.1878 100.348 46.1878C101.228 46.1878 102.108 46.3528 102.878 46.6827C103.647 47.0126 104.307 47.5075 104.912 48.0573C105.517 48.6622 105.957 49.322 106.342 50.1468C106.672 50.9166 106.836 51.7963 106.836 52.6211C106.836 53.5009 106.672 54.3806 106.342 55.1504C106.012 55.9202 105.517 56.58 104.912 57.2399C104.307 57.8447 103.647 58.2846 102.823 58.6145C101.283 59.3293 99.3585 59.3293 97.8189 58.6145ZM229.069 48.1123C228.794 47.5075 228.464 46.7927 228.024 46.1328C227.639 45.528 227.199 44.9781 226.65 44.4833C226.485 44.3183 226.375 44.2083 226.21 44.0984L225.99 43.8784C225.935 43.8234 225.88 43.8234 225.88 43.7685C225.77 43.6585 225.66 43.6035 225.55 43.4935L225.44 43.3836C225.385 43.3836 225.33 43.3286 225.22 43.2736L225.165 43.2186C225.11 43.1636 225.055 43.1086 225 43.1086C224.945 43.0537 224.89 42.9987 224.78 42.9437C224.725 42.9437 224.725 42.8887 224.67 42.8337C224.45 42.7237 224.285 42.5588 224.01 42.4488L223.9 42.3938C223.625 42.2839 223.35 42.1189 223.076 42.0089C221.701 41.4041 220.216 41.1292 218.567 41.1292C216.972 41.1292 215.488 41.4041 214.113 42.0089C213.893 42.1189 213.673 42.2289 213.453 42.2839L213.123 42.4488C212.903 42.5588 212.738 42.7237 212.518 42.8337L212.408 42.8887C212.298 42.9437 212.243 42.9987 212.188 43.0537C212.078 43.1086 211.968 43.1636 211.913 43.2736L211.639 43.4385C211.529 43.5485 211.419 43.6035 211.309 43.7135C211.254 43.7135 211.254 43.7685 211.199 43.8234L211.089 43.9334C210.924 44.0984 210.704 44.2633 210.539 44.4283C210.209 44.7582 209.879 45.1431 209.494 45.638L209.439 45.7479C209.439 45.8029 209.384 45.8579 209.329 45.9129C209.274 45.9679 209.219 46.0778 209.164 46.1328C208.944 46.4078 208.779 46.7377 208.559 47.1776L208.504 47.2325C208.339 47.5624 208.174 47.8374 208.064 48.1673V48.2773C208.064 48.2773 208.01 48.3322 208.01 48.3872C207.9 48.6072 207.845 48.7721 207.79 48.9921L207.735 49.102C207.68 49.212 207.68 49.267 207.625 49.322C207.625 49.4319 207.57 49.4869 207.57 49.5969C207.515 49.7069 207.515 49.8168 207.46 49.9268C207.35 50.4217 207.24 50.9166 207.185 51.4114L207.13 51.6314H207.185V53.9957C207.295 55.0954 207.57 56.1402 207.955 57.0749C208.559 58.4495 209.384 59.6592 210.429 60.7039C210.869 61.1438 211.309 61.5287 211.694 61.8037C212.463 62.3535 213.233 62.8484 214.003 63.1783C215.378 63.7831 216.862 64.058 218.457 64.058C219.117 64.058 219.721 63.9481 220.326 63.8381C220.931 63.6732 221.591 63.5082 222.196 63.2333C222.801 62.9583 223.35 62.6284 223.845 62.2435C224.175 62.0236 224.45 61.7487 224.725 61.4737V63.5632H229.839V51.3564C229.784 50.2567 229.509 49.157 229.069 48.1123ZM224.835 52.6211C224.835 53.6658 224.67 54.5456 224.34 55.3154C224.01 56.0852 223.515 56.745 222.966 57.2399C222.361 57.7897 221.701 58.1746 220.986 58.3946C220.216 58.6145 219.391 58.7795 218.567 58.7795C217.687 58.7795 216.917 58.6145 216.147 58.2846C215.433 57.9547 214.718 57.5148 214.168 56.9649C213.618 56.4151 213.178 55.7553 212.848 54.9855C212.518 54.2707 212.353 53.4459 212.353 52.5661C212.353 51.6863 212.518 50.8616 212.848 50.1468C213.233 49.322 213.618 48.7171 214.168 48.1673C214.718 47.6174 215.378 47.1226 216.147 46.8476C216.917 46.5177 217.687 46.3528 218.567 46.3528C219.446 46.3528 220.216 46.5177 220.986 46.7377C221.756 47.0126 222.416 47.3975 222.966 47.9473C223.515 48.4422 223.955 49.102 224.285 49.8718C224.67 50.6966 224.835 51.6314 224.835 52.6211ZM19.0799 42.2289H24.0286V64.0031H19.0799V42.2289ZM186.18 52.951C185.521 52.4012 184.696 51.9063 183.706 51.4664C182.771 51.0265 181.727 50.6416 180.627 50.2567C180.132 50.0368 179.637 49.9268 179.197 49.7619L178.702 49.5969C178.152 49.4319 177.713 49.267 177.328 49.102C176.998 48.9371 176.723 48.7721 176.558 48.4972C176.393 48.2773 176.283 48.0573 176.283 47.7274V47.6174C176.283 47.4525 176.338 47.3425 176.393 47.1776C176.448 47.0676 176.558 46.9026 176.723 46.8476C176.943 46.7377 177.218 46.6277 177.548 46.5727C177.933 46.4627 178.427 46.4627 179.032 46.4627C180.187 46.4627 181.177 46.5727 182.111 46.7927C182.991 47.0126 183.981 47.3975 184.971 47.8924L185.191 48.0023L187.445 43.6035L187.225 43.4935C185.905 42.8337 184.531 42.3938 183.101 42.0639C181.672 41.734 180.407 41.569 179.252 41.569H179.197C178.097 41.569 177.053 41.734 176.008 42.0089C174.963 42.2839 174.029 42.7237 173.259 43.2736C172.434 43.8234 171.774 44.4833 171.279 45.308C170.784 46.0778 170.51 47.0126 170.51 47.9473V48.0573C170.51 49.102 170.729 49.9818 171.169 50.6966C171.609 51.4114 172.159 52.0712 172.874 52.5661C173.589 53.061 174.413 53.5009 175.403 53.8858C176.338 54.2157 177.383 54.5456 178.482 54.8755C179.857 55.2604 180.957 55.7003 181.782 56.1402C182.496 56.58 182.881 57.0749 182.881 57.7897V57.8997C182.881 58.3396 182.661 58.7245 182.111 58.9444C181.507 59.2193 180.682 59.3293 179.692 59.3293C179.032 59.3293 178.372 59.2743 177.768 59.2193C177.218 59.1644 176.723 59.0544 176.173 58.8894C175.623 58.7245 175.128 58.5045 174.633 58.2846C174.139 58.0646 173.589 57.7347 172.984 57.4048L172.819 57.2949L169.905 61.5287L170.07 61.6387C170.784 62.0786 171.554 62.4635 172.379 62.7934C173.204 63.1233 174.029 63.3982 174.853 63.6182C175.678 63.8381 176.503 64.0031 177.328 64.113C178.152 64.223 178.867 64.278 179.527 64.278C180.627 64.278 181.727 64.113 182.771 63.8381C183.816 63.5632 184.806 63.1233 185.63 62.5185C186.51 61.9136 187.17 61.2538 187.72 60.374C188.27 59.5493 188.545 58.5595 188.545 57.5148V57.4048C188.545 56.4151 188.325 55.5353 187.995 54.7655C187.39 54.1607 186.84 53.5009 186.18 52.951ZM72.3607 64.058H67.467V52.896C67.412 52.1262 67.2471 51.3564 66.9721 50.6966C66.6422 49.9268 66.1473 49.212 65.5975 48.6622C64.9927 48.0573 64.3328 47.6174 63.563 47.2325C62.7932 46.9026 61.9685 46.7377 61.0337 46.7377C60.1539 46.7377 59.3292 46.9026 58.5594 47.2325C57.7896 47.5624 57.0748 48.0573 56.5249 48.6622C55.9201 49.267 55.4802 49.9268 55.1503 50.6966C54.8204 51.4114 54.6554 52.1812 54.6004 52.896V64.058H49.7067V52.0712C49.8717 50.9166 50.0916 49.8168 50.5865 48.7721C50.8614 48.1123 51.2463 47.4525 51.6312 46.7927C52.0161 46.1878 52.511 45.638 53.0058 45.1431L53.4457 44.7032L53.5557 44.5932L53.7207 44.4283L53.9406 44.2083C54.0506 44.1534 54.1056 44.0984 54.2155 44.0434C54.3255 43.9334 54.4905 43.8234 54.6004 43.7135C54.7104 43.6585 54.8204 43.6035 54.9303 43.4935L55.0403 43.4385C55.2053 43.3286 55.3702 43.2186 55.5902 43.1636L55.6451 43.1086C55.9751 42.9437 56.25 42.7787 56.5249 42.6688C57.8995 42.0639 59.3841 41.789 60.9787 41.789H61.0337C62.6283 41.789 64.1129 42.0639 65.4875 42.6688C65.8174 42.7787 66.0924 42.9437 66.3123 43.1086C66.3123 43.1086 66.3673 43.1086 66.3673 43.1636C66.5872 43.2736 66.7522 43.3836 66.9171 43.4935L67.0271 43.5485C67.1371 43.6035 67.2471 43.6585 67.357 43.7685L67.412 43.8234C67.522 43.9334 67.6869 43.9884 67.7969 44.0984C67.8519 44.1534 67.9619 44.2083 68.0168 44.2633C68.1268 44.3183 68.1818 44.3733 68.2918 44.4283L68.5117 44.5932C68.6767 44.7582 68.8966 44.9232 69.1166 45.1431C69.6664 45.638 70.1063 46.1878 70.5462 46.7927C70.9311 47.3975 71.316 48.0573 71.5909 48.7721C72.0308 49.7619 72.3057 50.8616 72.4157 52.0163V52.2362L72.3607 64.058Z" fill="#231F20"/>
</svg>
