<svg width="118" height="150" viewBox="0 0 118 150" fill="none" xmlns="http://www.w3.org/2000/svg">
<path d="M94.3679 133.325C83.9277 141.183 70.0935 145.721 56.333 145.721C22.1348 145.721 4.2425 126.648 4.2425 107.796C4.2425 96.5814 12.5799 84.9238 26.5248 84.9238C34.7516 84.9238 47.5898 88.9818 46.0034 104.993C45.7821 103.369 43.6424 97.6513 37.4078 97.6513C33.94 97.6513 30.9887 100.529 30.9887 103.886C30.9887 105.288 30.6567 105.657 30.3984 105.657C28.0743 105.657 25.1968 102.263 25.787 96.5814C16.8224 106.579 23.2046 113.662 26.3404 116.54C27.0413 117.204 28.1112 118.163 28.1112 118.532C28.1112 119.491 25.5288 121.114 19.1097 120.524C30.3246 133.915 43.4211 130.3 50.3566 128.345C52.0905 127.865 54.1564 126.98 54.6729 127.791C55.5952 129.046 53.1235 134.764 49.8401 137.789C68.7654 135.317 74.9631 124.471 78.0989 118.79C79.1687 116.872 80.0541 115.248 80.8288 115.248C82.821 115.248 84.5549 123.291 83.2268 129.488C95.7698 117.794 92.1545 105.288 90.3468 99.6803C89.9041 98.3153 89.4983 97.1348 89.4983 96.4338C89.4983 95.4009 89.8303 95.1058 90.5312 94.9213C93.667 94.9213 97.3192 96.028 101.709 98.1308C90.0885 70.9788 49.9877 74.7049 40.2484 68.6916C47.6267 68.2858 56.9971 62.8997 65.2238 57.5873C68.1382 55.7059 70.3886 53.8244 72.1963 52.3119C74.1146 50.7255 75.7378 49.3605 76.6232 49.3605C79.058 49.3605 79.3901 56.5175 78.1358 60.9075C84.2228 56.9602 87.1004 51.0575 87.1004 45.5239C87.1004 39.9902 84.0384 36.5593 82.0462 34.272C81.4191 33.5711 80.5706 32.6119 80.5337 32.2799C80.5337 31.9848 80.755 31.6158 81.2346 31.2838C83.3374 29.7344 87.4324 29.181 91.7118 30.1402C82.3045 18.0398 70.6099 21.4707 64.1909 23.5735C62.2356 24.2007 59.3581 25.123 59.3581 24.3114C59.3581 22.0241 62.3832 17.3389 67.7324 14.0925C56.7757 13.3546 41.7241 21.5814 30.9149 27.3733C22.061 32.0954 13.7236 36.5593 8.92769 36.5593C5.97639 36.5593 4.94343 35.4894 4.94343 34.3827C4.94343 26.1928 34.0138 4.2425 64.7073 4.2425C76.3281 4.2425 85.846 7.12002 92.1913 12.543C97.6882 17.2651 100.75 23.9056 100.75 31.2838C100.75 42.6094 95.4009 50.3935 92.1913 55.0787C90.5312 57.4766 89.6459 58.8047 89.6459 60.2066C89.6459 62.3832 91.6749 63.8957 95.0689 66.4043C101.709 71.3109 112.85 79.5007 112.85 96.3232C112.85 115.359 102.742 126.98 94.2942 133.362L94.3679 133.325ZM65.0025 0H64.4491C50.4673 0.0737826 34.6778 4.72209 21.1018 12.7644C8.78013 20.032 0.811609 28.517 0.811609 34.3827C0.811609 35.7846 1.36498 37.0757 2.36104 38.0718C6.19774 41.9085 16.9331 41.8347 29.3655 41.8347C47.848 41.8347 55.4476 42.8308 55.4476 45.7821C55.4476 49.3237 33.6449 58.1038 33.6449 65.7772C33.6449 74.6311 51.9429 76.2912 60.2066 77.7668C68.0276 79.1687 68.8023 83.3743 68.8023 86.2887C68.8023 91.7118 66.8101 96.5076 63.1948 99.8278C59.7639 102.964 55.5214 104.956 49.2868 104.661C51.2789 90.4206 41.1707 80.8288 26.488 80.8288C9.88687 80.8288 0 94.5524 0 107.833C0 128.788 19.331 150 56.2961 150C70.9051 150 85.6985 145.167 96.8397 136.756C106.062 129.784 117.093 117.13 117.093 96.3601C117.093 77.3979 104.402 68.0644 97.6144 63.0472C96.2494 62.0512 94.5893 60.8337 93.999 60.1328C94.2942 59.5425 95.0689 58.4358 95.696 57.5135C98.9425 52.7914 104.993 43.9744 104.993 31.3576C104.993 16.97 94.4786 0.184456 64.9287 0.110674L65.0025 0ZM48.2538 108.608C55.5583 109.014 61.5347 107.022 66.0723 102.89C70.4993 98.8318 73.0817 92.7447 73.0817 86.2518C73.0817 82.5627 71.7905 79.9065 68.8761 77.6193C79.6852 79.8328 91.306 85.3665 97.2823 94.0359C94.1835 92.9661 92.2282 92.6709 90.1992 92.6709C88.6498 92.6709 87.2479 94.3679 87.2479 96.4338C87.2479 97.4668 87.6537 98.758 88.2071 100.381C89.8303 105.398 92.4496 113.478 85.6616 123.623C85.8092 119.417 84.7393 116.06 83.3743 114.4C82.452 113.256 81.4929 112.998 80.8657 112.998C78.7629 112.998 77.6562 114.99 76.1436 117.72C73.4137 122.7 68.9129 130.78 54.8205 134.727C56.8495 131.665 57.5135 128.345 56.7757 126.537C56.4068 125.652 55.669 125.135 54.8205 125.135H54.7836C53.4186 125.209 51.7585 125.652 49.7664 126.205C43.3842 127.976 34.0138 130.595 24.3114 122.811C26.3035 122.664 28.0005 122.036 29.1441 121.077C29.9557 120.376 30.4353 119.491 30.4353 118.606C30.4353 117.277 29.3286 116.244 27.9267 114.953C25.1599 112.371 21.5076 108.977 24.422 101.931C24.8278 103.48 25.5288 104.845 26.5248 105.952C27.7054 107.243 29.1072 108.018 30.4353 108.018C33.3128 108.018 33.3128 105.583 33.3128 103.96C33.3128 101.857 35.2312 99.9754 37.4447 99.9754C43.6793 99.9754 46.0403 109.198 43.9744 114.179C46.0403 112.592 47.6636 110.231 48.2538 108.645V108.608ZM37.9611 65.7403H37.9243C37.998 63.4161 44.3802 59.3581 48.5858 56.6281C54.7836 52.6439 59.6901 49.545 59.6901 45.7083C59.6901 44.1589 59.0999 42.757 57.9562 41.6503C53.7506 37.4447 41.8716 37.4816 29.3286 37.5553C24.7541 37.5553 19.9213 37.7029 15.3099 37.334C19.9951 35.7846 25.7132 32.7226 32.0585 29.3286C41.3183 24.3851 51.6109 18.8883 61.2764 16.6749C58.6941 19.2204 57.0339 22.3192 57.0339 24.8647C57.0339 25.8977 57.6611 27.0044 59.4319 27.0044C60.9813 27.0044 62.8259 26.4142 64.9656 25.7132C70.5731 23.8687 78.062 21.4338 86.4732 27.6316C83.5957 27.6316 81.2346 28.4063 79.8697 29.4761C78.5785 30.4722 78.3202 31.5789 78.3202 32.2799C78.3202 33.4604 79.2056 34.4196 80.3861 35.7846C82.2676 37.9242 84.8869 40.8387 84.8869 45.5239C84.8869 49.3974 83.2637 53.3817 80.9395 56.2592C81.2715 53.7506 80.8288 50.0246 79.3532 48.3276C78.6522 47.516 77.73 47.1102 76.6601 47.1102C74.9631 47.1102 73.303 48.4752 70.7944 50.578C69.0236 52.0536 66.8101 53.8613 64.0433 55.669C55.7796 60.9813 46.3724 66.4412 39.4737 66.4412C39.0679 66.4412 37.998 66.3305 37.998 65.7772L37.9611 65.7403Z" fill="#332C2B"/>
</svg>
